<svg xmlns="http://www.w3.org/2000/svg" xmlns:xlink="http://www.w3.org/1999/xlink" viewBox="0 0 86.04 62.85"><defs><style>.cls-1{fill:#39b5d3;}.cls-2{fill:#223a91;}.cls-3{fill:url(#radial-gradient);}</style><radialGradient id="radial-gradient" cx="65.68" cy="6.94" r="33.83" gradientUnits="userSpaceOnUse"><stop offset="0" stop-color="#39b5d3"/><stop offset="1" stop-color="#0d3996"/></radialGradient></defs><title>logo2</title><g id="Capa_2" data-name="Capa 2"><g id="Layer_1" data-name="Layer 1"><g id="logo_header" data-name="logo header"><path class="cls-1" d="M.56,58.36h1v3.49H3.31v.89H.56Z"/><path class="cls-1" d="M6.14,58.36h.8l1.9,4.38H7.75l-.37-.93H5.68l-.36.93H4.25Zm.37,1.27L6,61H7.05Z"/><path class="cls-1" d="M10.14,58.36h1.64a5.66,5.66,0,0,1,.57,0,1.61,1.61,0,0,1,.51.16,1,1,0,0,1,.37.34,1,1,0,0,1,.14.57.91.91,0,0,1-.2.62,1.16,1.16,0,0,1-.55.35h0a1.12,1.12,0,0,1,.39.12,1.19,1.19,0,0,1,.31.23.94.94,0,0,1,.19.32,1.09,1.09,0,0,1,.07.4,1.06,1.06,0,0,1-.15.58,1.34,1.34,0,0,1-.38.37,1.87,1.87,0,0,1-.53.2,3,3,0,0,1-.58.07h-1.8Zm1,1.75h.7l.22,0,.19-.08a.5.5,0,0,0,.14-.15.52.52,0,0,0,.05-.23.38.38,0,0,0-.06-.22.4.4,0,0,0-.15-.14A.65.65,0,0,0,12,59.2a.9.9,0,0,0-.23,0h-.65Zm0,1.81H12l.23,0a1,1,0,0,0,.21-.09.57.57,0,0,0,.15-.16.48.48,0,0,0,.06-.24.37.37,0,0,0-.08-.25.5.5,0,0,0-.2-.15,1.49,1.49,0,0,0-.25-.07h-1Z"/><path class="cls-1" d="M14.78,60.55A2.59,2.59,0,0,1,15,59.6a2.09,2.09,0,0,1,.49-.73,2.2,2.2,0,0,1,.75-.46,2.87,2.87,0,0,1,1.89,0,2.2,2.2,0,0,1,.75.46,2.09,2.09,0,0,1,.49.73,2.6,2.6,0,0,1,0,1.9,2.06,2.06,0,0,1-1.24,1.19,2.87,2.87,0,0,1-1.89,0A2.06,2.06,0,0,1,15,61.5,2.59,2.59,0,0,1,14.78,60.55Zm1,0a1.69,1.69,0,0,0,.09.56,1.48,1.48,0,0,0,.28.45,1.3,1.3,0,0,0,.43.29,1.4,1.4,0,0,0,.56.11,1.47,1.47,0,0,0,.56-.11,1.26,1.26,0,0,0,.42-.29,1.31,1.31,0,0,0,.28-.45,1.79,1.79,0,0,0,0-1.12,1.15,1.15,0,0,0-.28-.45,1.13,1.13,0,0,0-.42-.29,1.47,1.47,0,0,0-.56-.11,1.4,1.4,0,0,0-.56.11,1.17,1.17,0,0,0-.43.29,1.28,1.28,0,0,0-.28.45A1.69,1.69,0,0,0,15.78,60.55Z"/><path class="cls-1" d="M21,58.36h1.7a2.59,2.59,0,0,1,.63.07,1.55,1.55,0,0,1,.53.21,1,1,0,0,1,.35.41,1.38,1.38,0,0,1,.14.64,1.3,1.3,0,0,1-.24.79,1.16,1.16,0,0,1-.71.41l1.11,1.85H23.37L22.45,61H22v1.75H21Zm1,1.81h.84a.67.67,0,0,0,.26,0,.43.43,0,0,0,.2-.15.44.44,0,0,0,.08-.28.43.43,0,0,0-.24-.41.72.72,0,0,0-.25-.07,1.18,1.18,0,0,0-.26,0H22Z"/><path class="cls-1" d="M27.32,58.36h.8L30,62.74H28.93l-.37-.93h-1.7l-.37.93H25.43Zm.37,1.27L27.16,61h1.07Z"/><path class="cls-1" d="M31.6,59.21H30.35v-.85h3.46v.85H32.56v3.53h-1Z"/><path class="cls-1" d="M34.93,60.55a2.4,2.4,0,0,1,.18-.95,2,2,0,0,1,.49-.73,2.25,2.25,0,0,1,.74-.46,2.67,2.67,0,0,1,.95-.16,2.58,2.58,0,0,1,.94.16,2.2,2.2,0,0,1,.75.46,2,2,0,0,1,.49.73,2.6,2.6,0,0,1,0,1.9,2,2,0,0,1-.49.73,2.2,2.2,0,0,1-.75.46,2.81,2.81,0,0,1-.94.16,2.91,2.91,0,0,1-.95-.16,2.25,2.25,0,0,1-.74-.46,2,2,0,0,1-.49-.73A2.4,2.4,0,0,1,34.93,60.55Zm1,0a1.47,1.47,0,0,0,.1.56,1.29,1.29,0,0,0,.27.45,1.3,1.3,0,0,0,.43.29,1.43,1.43,0,0,0,.56.11,1.47,1.47,0,0,0,.56-.11,1.42,1.42,0,0,0,.43-.29,1.29,1.29,0,0,0,.27-.45,1.62,1.62,0,0,0,0-1.12,1.13,1.13,0,0,0-.27-.45,1.26,1.26,0,0,0-.43-.29,1.47,1.47,0,0,0-.56-.11,1.43,1.43,0,0,0-.56.11,1.17,1.17,0,0,0-.43.29A1.13,1.13,0,0,0,36,60,1.47,1.47,0,0,0,35.93,60.55Z"/><path class="cls-1" d="M41.17,58.36h1.69a2.59,2.59,0,0,1,.63.07,1.47,1.47,0,0,1,.53.21,1.1,1.1,0,0,1,.36.41,1.52,1.52,0,0,1,.13.64,1.3,1.3,0,0,1-.24.79,1.13,1.13,0,0,1-.71.41l1.12,1.85H43.52L42.61,61h-.48v1.75h-1Zm1,1.81H43a.76.76,0,0,0,.27,0,.45.45,0,0,0,.19-.15.44.44,0,0,0,.08-.28.4.4,0,0,0-.07-.26.35.35,0,0,0-.17-.15A.61.61,0,0,0,43,59.2a1.23,1.23,0,0,0-.27,0h-.63Z"/><path class="cls-1" d="M46,58.36h1v4.38H46Z"/><path class="cls-1" d="M48.49,60.55a2.4,2.4,0,0,1,.18-.95,2.09,2.09,0,0,1,.49-.73,2.2,2.2,0,0,1,.75-.46,2.61,2.61,0,0,1,.94-.16,2.67,2.67,0,0,1,.95.16,2.15,2.15,0,0,1,.74.46,2.11,2.11,0,0,1,.5.73,2.74,2.74,0,0,1,0,1.9,2.21,2.21,0,0,1-.5.73,2.15,2.15,0,0,1-.74.46,2.91,2.91,0,0,1-.95.16,2.85,2.85,0,0,1-.94-.16,2.06,2.06,0,0,1-1.24-1.19A2.4,2.4,0,0,1,48.49,60.55Zm1,0a1.69,1.69,0,0,0,.1.56,1.29,1.29,0,0,0,.27.45,1.42,1.42,0,0,0,.43.29,1.47,1.47,0,0,0,.56.11,1.43,1.43,0,0,0,.56-.11,1.3,1.3,0,0,0,.43-.29,1.29,1.29,0,0,0,.27-.45,1.62,1.62,0,0,0,0-1.12,1.13,1.13,0,0,0-.27-.45,1.17,1.17,0,0,0-.43-.29,1.43,1.43,0,0,0-.56-.11,1.47,1.47,0,0,0-.56.11,1.26,1.26,0,0,0-.43.29,1.13,1.13,0,0,0-.27.45A1.69,1.69,0,0,0,49.49,60.55Z"/><path class="cls-1" d="M57.42,58.36h1.45a4.09,4.09,0,0,1,1,.12,2.21,2.21,0,0,1,.82.38,1.79,1.79,0,0,1,.56.68,2.26,2.26,0,0,1,.21,1,2.13,2.13,0,0,1-.2.94,2.26,2.26,0,0,1-.54.68,2.38,2.38,0,0,1-.79.41,2.92,2.92,0,0,1-.93.15H57.42Zm1,3.49h.5a3,3,0,0,0,.62-.07,1.43,1.43,0,0,0,.5-.23,1.13,1.13,0,0,0,.33-.41,1.48,1.48,0,0,0,.12-.63,1.25,1.25,0,0,0-.12-.56,1,1,0,0,0-.33-.39,1.34,1.34,0,0,0-.48-.23,2.14,2.14,0,0,0-.58-.08h-.56Z"/><path class="cls-1" d="M63,58.36h3v.89H64v.82h1.89V61H64v.89h2.11v.89H63Z"/><path class="cls-1" d="M67.73,58.36H69l1.86,3h0v-3h1v4.38H70.62l-1.91-3.12h0v3.12h-1Z"/><path class="cls-1" d="M74.48,59.21H73.23v-.85h3.46v.85H75.44v3.53h-1Z"/><path class="cls-1" d="M78.91,58.36h.8l1.9,4.38H80.52l-.37-.93h-1.7l-.37.93H77Zm.37,1.27L78.75,61h1.07Z"/><path class="cls-1" d="M83,58.36h1v3.49H85.7v.89H83Z"/><path class="cls-2" d="M0,34.43V17.71H4.06v13.2h6.48v3.52Z"/><path class="cls-2" d="M19.35,34.43V32.8H19.3a3.26,3.26,0,0,1-.55.76,3.46,3.46,0,0,1-.8.61,4.67,4.67,0,0,1-1,.43,4.09,4.09,0,0,1-1.17.17,4.35,4.35,0,0,1-2-.43,3.85,3.85,0,0,1-1.32-1.1,4.33,4.33,0,0,1-.73-1.53A7,7,0,0,1,11.48,30V22.67h3.9v6.38a7,7,0,0,0,.07.94,2.58,2.58,0,0,0,.27.81,1.58,1.58,0,0,0,.54.55,1.7,1.7,0,0,0,.87.2,1.79,1.79,0,0,0,1.55-.75A3.06,3.06,0,0,0,19.21,29V22.67h3.87V34.43Z"/><path class="cls-2" d="M30,18.91a2.14,2.14,0,0,1-.17.84,2.16,2.16,0,0,1-.48.67,2.11,2.11,0,0,1-.7.45,2.36,2.36,0,0,1-.87.17,2.16,2.16,0,0,1-1.58-.63,2,2,0,0,1-.64-1.5,2.06,2.06,0,0,1,.17-.81,1.89,1.89,0,0,1,.47-.68,2.48,2.48,0,0,1,.71-.46,2.12,2.12,0,0,1,.87-.18,2.36,2.36,0,0,1,.87.17,2.11,2.11,0,0,1,.7.45,2.16,2.16,0,0,1,.48.67A2.14,2.14,0,0,1,30,18.91ZM25.83,34.43V22.67H29.7V34.43Z"/><path class="cls-2" d="M39.36,26.14a4.27,4.27,0,0,0-1.11-.76,3.09,3.09,0,0,0-1.34-.3,2.4,2.4,0,0,0-1,.21.76.76,0,0,0-.46.73.73.73,0,0,0,.51.71,11.19,11.19,0,0,0,1.64.47,8.91,8.91,0,0,1,1.34.41,4.61,4.61,0,0,1,1.21.68,3.15,3.15,0,0,1,.88,1,3.07,3.07,0,0,1,.33,1.47,3.62,3.62,0,0,1-.45,1.87,3.57,3.57,0,0,1-1.17,1.24,4.9,4.9,0,0,1-1.62.69,7.88,7.88,0,0,1-1.79.21,8.79,8.79,0,0,1-2.83-.46A5.91,5.91,0,0,1,31.19,33l2.17-2.29a4.45,4.45,0,0,0,1.28.95,3.56,3.56,0,0,0,1.61.37,2.11,2.11,0,0,0,.93-.22.8.8,0,0,0,.46-.79.86.86,0,0,0-.57-.81,10.76,10.76,0,0,0-1.77-.54,8.27,8.27,0,0,1-1.23-.38,4,4,0,0,1-1.1-.63,3.27,3.27,0,0,1-.79-1,3.06,3.06,0,0,1-.31-1.41,3.42,3.42,0,0,1,.45-1.81,3.87,3.87,0,0,1,1.16-1.22,5.31,5.31,0,0,1,1.57-.7,6.8,6.8,0,0,1,1.71-.22,8.4,8.4,0,0,1,2.59.41,5.67,5.67,0,0,1,2.14,1.24Z"/><path class="cls-2" d="M15.75,55.19l.1-11.84h-.07L11.43,55.19H8.59L4.36,43.35H4.29l.1,11.84H.58V38.46H6.33l3.81,10.73h.09l3.65-10.73h5.84V55.19Z"/><path class="cls-2" d="M26.81,39.66a2,2,0,0,1-.18.84,2.18,2.18,0,0,1-.47.68,2.15,2.15,0,0,1-.71.45,2.3,2.3,0,0,1-.86.16A2.19,2.19,0,0,1,23,41.16a2,2,0,0,1-.63-1.5,2.05,2.05,0,0,1,.16-.81,1.89,1.89,0,0,1,.47-.67,2.83,2.83,0,0,1,.71-.47,2.38,2.38,0,0,1,1.74,0,2.15,2.15,0,0,1,.71.45,2.18,2.18,0,0,1,.47.68A1.94,1.94,0,0,1,26.81,39.66ZM22.65,55.19V43.42h3.88V55.19Z"/><path class="cls-2" d="M29.31,55.19V37.32h3.95V55.19Z"/><path class="cls-2" d="M35.81,45a6.78,6.78,0,0,1,2.42-1.49,8.36,8.36,0,0,1,2.83-.5,7.34,7.34,0,0,1,2.51.37,3.74,3.74,0,0,1,1.67,1.13,5,5,0,0,1,.93,1.94,11.32,11.32,0,0,1,.3,2.78v5.93H42.92V53.94h-.07a3,3,0,0,1-1.36,1.13,4.75,4.75,0,0,1-2,.4,5.8,5.8,0,0,1-1.46-.19,4.24,4.24,0,0,1-1.39-.61,3.31,3.31,0,0,1-1-1.14,3.45,3.45,0,0,1-.41-1.74,3,3,0,0,1,.7-2.06,4.65,4.65,0,0,1,1.8-1.21A9.39,9.39,0,0,1,40.18,48a23.62,23.62,0,0,1,2.62-.14v-.19a1.43,1.43,0,0,0-.61-1.29,2.6,2.6,0,0,0-1.51-.41,3.76,3.76,0,0,0-1.6.35,5.2,5.2,0,0,0-1.31.85Zm7.11,5h-.49q-.65,0-1.29.06a5.44,5.44,0,0,0-1.16.22,2.17,2.17,0,0,0-.84.49,1.11,1.11,0,0,0-.33.84.93.93,0,0,0,.16.56,1.15,1.15,0,0,0,.38.38,1.57,1.57,0,0,0,.55.2,3,3,0,0,0,.59.06,2.38,2.38,0,0,0,1.81-.65,2.45,2.45,0,0,0,.62-1.76Z"/><path class="cls-2" d="M56.75,55.19V48.76a4.76,4.76,0,0,0-.09-.94,2.44,2.44,0,0,0-.27-.8,1.44,1.44,0,0,0-.53-.54,1.74,1.74,0,0,0-.86-.2,2,2,0,0,0-.91.2,1.75,1.75,0,0,0-.65.56,2.18,2.18,0,0,0-.39.81,3.42,3.42,0,0,0-.13,1v6.38H49V43.42h3.76v1.63h0a3.7,3.7,0,0,1,.56-.74,3.1,3.1,0,0,1,.8-.63,5.1,5.1,0,0,1,1-.42,3.9,3.9,0,0,1,1.15-.17,4.27,4.27,0,0,1,2,.43,3.92,3.92,0,0,1,1.34,1.09,4.35,4.35,0,0,1,.73,1.55,7,7,0,0,1,.22,1.75v7.28Z"/><path class="cls-2" d="M74.91,49.45v.47a3.24,3.24,0,0,1,0,.45H66.36a2,2,0,0,0,.3.9,2.58,2.58,0,0,0,.63.69,3.22,3.22,0,0,0,1.88.63,3.33,3.33,0,0,0,1.56-.34,3.12,3.12,0,0,0,1-.89l2.7,1.7a5.59,5.59,0,0,1-2.19,1.86,7.29,7.29,0,0,1-3.15.65,7.43,7.43,0,0,1-2.51-.42A6.09,6.09,0,0,1,64.55,54a5.64,5.64,0,0,1-1.39-2,6.52,6.52,0,0,1-.51-2.65,6.64,6.64,0,0,1,.5-2.61,5.9,5.9,0,0,1,3.35-3.25A6.87,6.87,0,0,1,69,43a6.34,6.34,0,0,1,2.38.44,5.15,5.15,0,0,1,1.87,1.26,5.89,5.89,0,0,1,1.22,2A7.81,7.81,0,0,1,74.91,49.45ZM71.35,48a2.38,2.38,0,0,0-.58-1.59A2.2,2.2,0,0,0,69,45.71a2.91,2.91,0,0,0-1,.18,2.77,2.77,0,0,0-.82.48,2.37,2.37,0,0,0-.57.73,2.17,2.17,0,0,0-.24.86Zm-1.8-6.29H66.62l2.46-3.4H73Z"/><path class="cls-2" d="M83.92,46.89a4.6,4.6,0,0,0-1.11-.75,3,3,0,0,0-1.35-.31,2.36,2.36,0,0,0-1,.21.76.76,0,0,0-.47.74.72.72,0,0,0,.51.7,10.94,10.94,0,0,0,1.64.48,8.52,8.52,0,0,1,1.34.4A4.84,4.84,0,0,1,84.7,49a3.36,3.36,0,0,1,.87,1,3.07,3.07,0,0,1,.33,1.47,3.66,3.66,0,0,1-.45,1.88,3.76,3.76,0,0,1-1.17,1.24,5.1,5.1,0,0,1-1.62.68,7.76,7.76,0,0,1-1.79.22,8.78,8.78,0,0,1-2.82-.47,5.82,5.82,0,0,1-2.31-1.35l2.18-2.3a4.23,4.23,0,0,0,1.27.95,3.6,3.6,0,0,0,1.61.38,2.13,2.13,0,0,0,.93-.23.8.8,0,0,0,.46-.79.85.85,0,0,0-.56-.8,10.45,10.45,0,0,0-1.78-.55A9.58,9.58,0,0,1,78.62,50a3.82,3.82,0,0,1-1.09-.64,3.23,3.23,0,0,1-.8-1,3.13,3.13,0,0,1-.3-1.42,3.45,3.45,0,0,1,.45-1.81A3.84,3.84,0,0,1,78,44a5.4,5.4,0,0,1,1.57-.69A6.84,6.84,0,0,1,81.32,43a8.21,8.21,0,0,1,2.59.42A5.5,5.5,0,0,1,86,44.7Z"/><path class="cls-3" d="M84.42,35.29,64.33.49a1,1,0,0,0-1.7,0L51.3,20.11c3.83-1,8.16,2.18,8.16,2.18,3.86,2.73,8,1.72,10.78.44a.46.46,0,0,1,.47.77c-7.22,5.94-13.18,1-13.18,1-3.47-2.91-6.54-1.92-8.09-1.05l-.11,0L42.54,35.29a1,1,0,0,0,.85,1.46H83.57A1,1,0,0,0,84.42,35.29ZM50,34.11a1.87,1.87,0,1,1,1.87-1.86A1.86,1.86,0,0,1,50,34.11Zm3.21-4.88a1.87,1.87,0,1,1,1.87-1.87A1.87,1.87,0,0,1,53.23,29.23Zm3.21,4.88a1.87,1.87,0,1,1,1.87-1.86A1.86,1.86,0,0,1,56.44,34.11Z"/><path class="cls-2" d="M83.34,20.44a2.45,2.45,0,1,1-2.44-2.38A2.4,2.4,0,0,1,83.34,20.44Zm-4.28,0a1.85,1.85,0,0,0,1.86,1.91,1.91,1.91,0,0,0,0-3.81A1.85,1.85,0,0,0,79.06,20.44Zm1.46,1.25H80V19.31a5.2,5.2,0,0,1,.92-.07,1.46,1.46,0,0,1,.82.17.63.63,0,0,1,.24.52.62.62,0,0,1-.5.56v0a.68.68,0,0,1,.44.58,1.93,1.93,0,0,0,.17.59h-.59a1.9,1.9,0,0,1-.19-.58c0-.26-.19-.38-.5-.38h-.26Zm0-1.35h.26c.3,0,.55-.1.55-.35s-.16-.36-.51-.36a1.05,1.05,0,0,0-.3,0Z"/></g></g></g></svg>