<svg xmlns="http://www.w3.org/2000/svg" xmlns:xlink="http://www.w3.org/1999/xlink" viewBox="0 0 295.89 51.4"><defs><style>.cls-1{fill:#39b5d3;}.cls-2{fill:#223a91;}.cls-3{fill:url(#radial-gradient);}</style><radialGradient id="radial-gradient" cx="32.44" cy="9.67" r="47.17" gradientUnits="userSpaceOnUse"><stop offset="0" stop-color="#39b5d3"/><stop offset="1" stop-color="#0d3996"/></radialGradient></defs><title>Recurso 1</title><g id="Capa_2" data-name="Capa 2"><g id="Layer_1" data-name="Layer 1"><path class="cls-1" d="M67.33,43.72H69v6H72v1.53H67.33Z"/><path class="cls-1" d="M76.9,43.72h1.36l3.26,7.49H79.66L79,49.62H76.1l-.62,1.59H73.66Zm.63,2.18-.91,2.32h1.83Z"/><path class="cls-1" d="M83.75,43.72h2.8a8.18,8.18,0,0,1,1,.06,2.67,2.67,0,0,1,.88.28,1.78,1.78,0,0,1,.64.58,1.75,1.75,0,0,1,.24,1,1.54,1.54,0,0,1-.36,1.05,1.89,1.89,0,0,1-.93.6v0a2.39,2.39,0,0,1,.67.21,1.82,1.82,0,0,1,.52.39,1.73,1.73,0,0,1,.33.56,1.85,1.85,0,0,1,.12.67,1.78,1.78,0,0,1-.26,1,1.81,1.81,0,0,1-.65.64,2.7,2.7,0,0,1-.91.35,4.86,4.86,0,0,1-1,.11H83.75Zm1.66,3H86.6a1.64,1.64,0,0,0,.38,0,1.22,1.22,0,0,0,.33-.14.72.72,0,0,0,.24-.25.79.79,0,0,0,.09-.38.75.75,0,0,0-.1-.39.85.85,0,0,0-.26-.24,1.39,1.39,0,0,0-.36-.12,2.87,2.87,0,0,0-.39,0H85.41Zm0,3.1h1.48a1.69,1.69,0,0,0,.38,0,1.14,1.14,0,0,0,.36-.15,1,1,0,0,0,.26-.27.9.9,0,0,0,.1-.42.73.73,0,0,0-.13-.43.84.84,0,0,0-.34-.24,1.52,1.52,0,0,0-.43-.12l-.44,0H85.41Z"/><path class="cls-1" d="M91.69,47.46a4.26,4.26,0,0,1,.3-1.63,3.58,3.58,0,0,1,.84-1.24,3.73,3.73,0,0,1,1.28-.79,4.75,4.75,0,0,1,1.62-.27,4.67,4.67,0,0,1,1.62.27,3.63,3.63,0,0,1,1.28.79,3.58,3.58,0,0,1,.84,1.24,4.44,4.44,0,0,1,0,3.26,3.51,3.51,0,0,1-2.12,2,4.45,4.45,0,0,1-1.62.28,4.52,4.52,0,0,1-1.62-.28,3.7,3.7,0,0,1-1.28-.78A3.62,3.62,0,0,1,92,49.09,4.26,4.26,0,0,1,91.69,47.46Zm1.72,0a2.7,2.7,0,0,0,.16,1,2.27,2.27,0,0,0,.47.76,2,2,0,0,0,.74.5,2.4,2.4,0,0,0,1,.18,2.45,2.45,0,0,0,1-.18,2.11,2.11,0,0,0,.74-.5,2.27,2.27,0,0,0,.47-.76,2.7,2.7,0,0,0,.16-1,2.76,2.76,0,0,0-.16-1,2.31,2.31,0,0,0-.47-.77,2.25,2.25,0,0,0-.74-.5,2.45,2.45,0,0,0-1-.18,2.4,2.4,0,0,0-1,.18,2.15,2.15,0,0,0-.74.5,2.31,2.31,0,0,0-.47.77A2.76,2.76,0,0,0,93.41,47.46Z"/><path class="cls-1" d="M102.38,43.72h2.9a4.71,4.71,0,0,1,1.08.11,2.41,2.41,0,0,1,.9.37,1.84,1.84,0,0,1,.62.7A2.35,2.35,0,0,1,108.1,46a2.17,2.17,0,0,1-.41,1.35,1.81,1.81,0,0,1-1.21.7l1.91,3.17h-2l-1.57-3H104v3h-1.65Zm1.65,3.1h1l.47,0a1.5,1.5,0,0,0,.45-.09.86.86,0,0,0,.34-.25.76.76,0,0,0,.13-.48.75.75,0,0,0-.12-.45.72.72,0,0,0-.29-.26,1.6,1.6,0,0,0-.42-.13,3.4,3.4,0,0,0-.45,0H104Z"/><path class="cls-1" d="M113.18,43.72h1.37l3.26,7.49h-1.87l-.64-1.59h-2.91l-.63,1.59h-1.82Zm.64,2.18-.91,2.32h1.83Z"/><path class="cls-1" d="M120.52,45.18h-2.14V43.72h5.92v1.46h-2.13v6h-1.65Z"/><path class="cls-1" d="M126.22,47.46a4.26,4.26,0,0,1,.3-1.63,3.58,3.58,0,0,1,.84-1.24,3.73,3.73,0,0,1,1.28-.79,4.75,4.75,0,0,1,1.62-.27,4.67,4.67,0,0,1,1.62.27,3.73,3.73,0,0,1,1.28.79,3.58,3.58,0,0,1,.84,1.24,4.58,4.58,0,0,1,0,3.26,3.62,3.62,0,0,1-.84,1.25,3.7,3.7,0,0,1-1.28.78,4.45,4.45,0,0,1-1.62.28,4.52,4.52,0,0,1-1.62-.28,3.7,3.7,0,0,1-1.28-.78,3.62,3.62,0,0,1-.84-1.25A4.26,4.26,0,0,1,126.22,47.46Zm1.71,0a2.7,2.7,0,0,0,.17,1,2.12,2.12,0,0,0,.47.76,2.07,2.07,0,0,0,.73.5,2.65,2.65,0,0,0,1.92,0,2.07,2.07,0,0,0,.73-.5,2,2,0,0,0,.47-.76,2.7,2.7,0,0,0,.17-1,2.77,2.77,0,0,0-.17-1,2,2,0,0,0-.47-.77,2.21,2.21,0,0,0-.73-.5,2.65,2.65,0,0,0-1.92,0,2.21,2.21,0,0,0-.73.5,2.16,2.16,0,0,0-.47.77A2.77,2.77,0,0,0,127.93,47.46Z"/><path class="cls-1" d="M136.91,43.72h2.9a4.71,4.71,0,0,1,1.08.11,2.41,2.41,0,0,1,.9.37,1.74,1.74,0,0,1,.61.7,2.35,2.35,0,0,1,.23,1.09,2.23,2.23,0,0,1-.41,1.35A1.84,1.84,0,0,1,141,48l1.91,3.17h-2l-1.57-3h-.81v3h-1.65Zm1.65,3.1h1l.47,0a1.5,1.5,0,0,0,.45-.09.83.83,0,0,0,.33-.25.76.76,0,0,0,.14-.48.73.73,0,0,0-.42-.71,1.52,1.52,0,0,0-.41-.13,3.52,3.52,0,0,0-.45,0h-1.08Z"/><path class="cls-1" d="M145.22,43.72h1.65v7.49h-1.65Z"/><path class="cls-1" d="M149.46,47.46a4.26,4.26,0,0,1,.3-1.63,3.58,3.58,0,0,1,.84-1.24,3.73,3.73,0,0,1,1.28-.79,4.67,4.67,0,0,1,1.62-.27,4.75,4.75,0,0,1,1.62.27,3.73,3.73,0,0,1,1.28.79,3.58,3.58,0,0,1,.84,1.24,4.58,4.58,0,0,1,0,3.26,3.62,3.62,0,0,1-.84,1.25,3.7,3.7,0,0,1-1.28.78,4.52,4.52,0,0,1-1.62.28,4.45,4.45,0,0,1-1.62-.28,3.7,3.7,0,0,1-1.28-.78,3.62,3.62,0,0,1-.84-1.25A4.26,4.26,0,0,1,149.46,47.46Zm1.71,0a2.94,2.94,0,0,0,.16,1,2.14,2.14,0,0,0,.48.76,2.07,2.07,0,0,0,.73.5,2.65,2.65,0,0,0,1.92,0,2.07,2.07,0,0,0,.73-.5,2.12,2.12,0,0,0,.47-.76,2.7,2.7,0,0,0,.17-1,2.77,2.77,0,0,0-.17-1,2.16,2.16,0,0,0-.47-.77,2.21,2.21,0,0,0-.73-.5,2.65,2.65,0,0,0-1.92,0,2.21,2.21,0,0,0-.73.5,2.18,2.18,0,0,0-.48.77A3,3,0,0,0,151.17,47.46Z"/><path class="cls-1" d="M164.76,43.72h2.47a6.79,6.79,0,0,1,1.71.2,3.81,3.81,0,0,1,1.41.65,3.06,3.06,0,0,1,1,1.17,3.86,3.86,0,0,1,.36,1.74,3.6,3.6,0,0,1-.35,1.61,3.51,3.51,0,0,1-.92,1.16,4.15,4.15,0,0,1-1.35.71,5,5,0,0,1-1.6.25h-2.69Zm1.65,6h.85a4.51,4.51,0,0,0,1.07-.11,2.29,2.29,0,0,0,.85-.39,1.83,1.83,0,0,0,.57-.71,2.62,2.62,0,0,0,.2-1.07,2.19,2.19,0,0,0-.2-1,2,2,0,0,0-.56-.67,2.41,2.41,0,0,0-.82-.4,3.54,3.54,0,0,0-1-.13h-1Z"/><path class="cls-1" d="M174.33,43.72h5.09v1.52H176v1.4h3.25v1.52H176v1.52h3.63v1.53h-5.28Z"/><path class="cls-1" d="M182.42,43.72h2.24l3.19,5.2h0v-5.2h1.65v7.49h-2.16l-3.27-5.34h0v5.34h-1.65Z"/><path class="cls-1" d="M194,45.18h-2.14V43.72h5.93v1.46h-2.14v6H194Z"/><path class="cls-1" d="M201.57,43.72h1.36l3.26,7.49h-1.86l-.64-1.59h-2.91l-.63,1.59h-1.82Zm.63,2.18-.91,2.32h1.84Z"/><path class="cls-1" d="M208.49,43.72h1.65v6h3.06v1.53h-4.71Z"/><path class="cls-2" d="M68,37V8.33h7V31H86v6Z"/><path class="cls-2" d="M101.1,37v-2.8H101a5.76,5.76,0,0,1-1,1.3,6.13,6.13,0,0,1-1.38,1,8,8,0,0,1-1.74.73,6.91,6.91,0,0,1-2,.28,7.27,7.27,0,0,1-3.42-.73,6.56,6.56,0,0,1-2.27-1.88A7.27,7.27,0,0,1,88,32.31a11.73,11.73,0,0,1-.39-3V16.83H94.3V27.76a10.64,10.64,0,0,0,.12,1.62,4,4,0,0,0,.47,1.37,2.52,2.52,0,0,0,.91.95,2.87,2.87,0,0,0,1.5.35,3,3,0,0,0,2.65-1.3,5.1,5.1,0,0,0,.91-3V16.83h6.64V37Z"/><path class="cls-2" d="M119.32,10.39a3.36,3.36,0,0,1-.31,1.44,3.77,3.77,0,0,1-.8,1.15,3.94,3.94,0,0,1-2.7,1A3.69,3.69,0,0,1,112.8,13a3.46,3.46,0,0,1-1.09-2.57A3.54,3.54,0,0,1,112,9a3.34,3.34,0,0,1,.81-1.15A4.42,4.42,0,0,1,114,7.05a3.64,3.64,0,0,1,1.49-.3,3.94,3.94,0,0,1,2.7,1A3.77,3.77,0,0,1,119,9,3.36,3.36,0,0,1,119.32,10.39ZM112.19,37V16.83h6.64V37Z"/><path class="cls-2" d="M135.39,22.78a7.42,7.42,0,0,0-1.9-1.3,5.27,5.27,0,0,0-2.31-.52,4.08,4.08,0,0,0-1.72.36,1.27,1.27,0,0,0-.79,1.26,1.25,1.25,0,0,0,.87,1.21,19.88,19.88,0,0,0,2.81.81,14.56,14.56,0,0,1,2.29.69,8.21,8.21,0,0,1,2.09,1.17,5.69,5.69,0,0,1,1.49,1.78,5.2,5.2,0,0,1,.57,2.51A6.07,6.07,0,0,1,136,36.1a8.63,8.63,0,0,1-2.78,1.17,13.41,13.41,0,0,1-3.07.36,15.1,15.1,0,0,1-4.84-.79,10.19,10.19,0,0,1-4-2.32l3.73-3.93a7.34,7.34,0,0,0,2.18,1.62,6.12,6.12,0,0,0,2.76.65,3.52,3.52,0,0,0,1.59-.39,1.37,1.37,0,0,0,.79-1.35,1.46,1.46,0,0,0-1-1.38,17,17,0,0,0-3-.93,15.05,15.05,0,0,1-2.11-.65,6.61,6.61,0,0,1-1.88-1.09,5.55,5.55,0,0,1-1.36-1.7,5.25,5.25,0,0,1-.52-2.43,5.82,5.82,0,0,1,.77-3.1,6.46,6.46,0,0,1,2-2.08,9,9,0,0,1,2.69-1.2,11.92,11.92,0,0,1,2.94-.38,14.26,14.26,0,0,1,4.43.71A9.62,9.62,0,0,1,139,19Z"/><path class="cls-2" d="M175.46,36.56l.16-20.28h-.12l-7.45,20.28h-4.86L156,16.28h-.12L156,36.56h-6.52V7.9h9.85l6.52,18.38H166L172.25,7.9h10V36.56Z"/><path class="cls-2" d="M194.4,10a3.43,3.43,0,0,1-.3,1.43,3.67,3.67,0,0,1-.81,1.16,3.85,3.85,0,0,1-1.21.77,4,4,0,0,1-1.48.28,3.73,3.73,0,0,1-2.71-1.07,3.48,3.48,0,0,1-1.1-2.57,3.55,3.55,0,0,1,.29-1.4,3.34,3.34,0,0,1,.81-1.15,4.15,4.15,0,0,1,1.21-.79,3.73,3.73,0,0,1,1.5-.31,4,4,0,0,1,1.48.29,3.68,3.68,0,0,1,1.21.77,3.52,3.52,0,0,1,.81,1.15A3.47,3.47,0,0,1,194.4,10Zm-7.12,26.59V16.4h6.64V36.56Z"/><path class="cls-2" d="M198.69,36.56V6h6.77v30.6Z"/><path class="cls-2" d="M209.83,19.16A11.37,11.37,0,0,1,214,16.61a14.09,14.09,0,0,1,4.83-.85,13.14,13.14,0,0,1,4.31.62A6.42,6.42,0,0,1,226,18.33a8.23,8.23,0,0,1,1.6,3.32,20,20,0,0,1,.5,4.75V36.56H222V34.42h-.12a5,5,0,0,1-2.33,1.94,8.24,8.24,0,0,1-3.38.69,10.66,10.66,0,0,1-2.51-.32,7.46,7.46,0,0,1-2.37-1.06,5.69,5.69,0,0,1-1.76-1.94,6,6,0,0,1-.69-3,5.08,5.08,0,0,1,1.2-3.52,7.71,7.71,0,0,1,3.08-2.06,16,16,0,0,1,4.19-1,40.67,40.67,0,0,1,4.49-.25v-.32a2.49,2.49,0,0,0-1.05-2.21,4.58,4.58,0,0,0-2.59-.71,6.55,6.55,0,0,0-2.74.61,8.85,8.85,0,0,0-2.24,1.46ZM222,27.78h-.85c-.73,0-1.46,0-2.2.1a9.77,9.77,0,0,0-2,.38,3.77,3.77,0,0,0-1.44.83,2,2,0,0,0-.56,1.44,1.7,1.7,0,0,0,.26,1,2.08,2.08,0,0,0,.67.65,2.71,2.71,0,0,0,.93.34,5.19,5.19,0,0,0,1,.11,4.09,4.09,0,0,0,3.1-1.12,4.16,4.16,0,0,0,1.07-3Z"/><path class="cls-2" d="M245.69,36.56v-11a8.57,8.57,0,0,0-.14-1.62,4.47,4.47,0,0,0-.46-1.35,2.46,2.46,0,0,0-.91-.93,2.92,2.92,0,0,0-1.48-.35,3.32,3.32,0,0,0-1.56.35,3,3,0,0,0-1.11,1,4.27,4.27,0,0,0-.67,1.39,6,6,0,0,0-.22,1.64V36.56h-6.68V16.4h6.43v2.8H239a7.17,7.17,0,0,1,.95-1.28,5.86,5.86,0,0,1,1.38-1.07,8.55,8.55,0,0,1,1.72-.73,6.74,6.74,0,0,1,2-.28,7.44,7.44,0,0,1,3.44.73,6.51,6.51,0,0,1,2.28,1.88A7.47,7.47,0,0,1,252,21.1a12.34,12.34,0,0,1,.38,3V36.56Z"/><path class="cls-2" d="M276.82,26.73v.81a6.4,6.4,0,0,1,0,.77H262.17a3.51,3.51,0,0,0,.5,1.53,4.48,4.48,0,0,0,1.1,1.2,5.11,5.11,0,0,0,1.5.79,5.21,5.21,0,0,0,1.72.28,5.6,5.6,0,0,0,2.67-.59A5.25,5.25,0,0,0,271.44,30l4.61,2.91a9.27,9.27,0,0,1-3.74,3.18,12.42,12.42,0,0,1-5.41,1.11,13,13,0,0,1-4.29-.71,10.4,10.4,0,0,1-3.54-2.06,9.67,9.67,0,0,1-2.39-3.34,11.21,11.21,0,0,1-.87-4.54,11.49,11.49,0,0,1,.85-4.47,10,10,0,0,1,5.75-5.56,11.6,11.6,0,0,1,4.29-.77,10.83,10.83,0,0,1,4.09.75,8.84,8.84,0,0,1,3.2,2.16,10.06,10.06,0,0,1,2.08,3.44A13.25,13.25,0,0,1,276.82,26.73Zm-6.11-2.55a4,4,0,0,0-1-2.72,3.76,3.76,0,0,0-3-1.13,5.12,5.12,0,0,0-1.78.3,4.69,4.69,0,0,0-1.41.83,4.33,4.33,0,0,0-1,1.24,3.67,3.67,0,0,0-.4,1.48Zm-3.08-10.77h-5l4.21-5.83h6.72Z"/><path class="cls-2" d="M292.25,22.35a7.45,7.45,0,0,0-1.91-1.29,5.21,5.21,0,0,0-2.3-.53,3.94,3.94,0,0,0-1.72.37,1.33,1.33,0,0,0,.08,2.47,19.88,19.88,0,0,0,2.81.81,15.64,15.64,0,0,1,2.29.68A8,8,0,0,1,293.58,26a5.61,5.61,0,0,1,1.5,1.78,5.2,5.2,0,0,1,.57,2.51,6,6,0,0,1-2.78,5.34,8.72,8.72,0,0,1-2.77,1.18,13.49,13.49,0,0,1-3.08.36,15.09,15.09,0,0,1-4.83-.79,10,10,0,0,1-3.95-2.33L282,30.17a7.52,7.52,0,0,0,2.19,1.62,6.07,6.07,0,0,0,2.75.64,3.55,3.55,0,0,0,1.6-.38,1.38,1.38,0,0,0,.79-1.36,1.44,1.44,0,0,0-1-1.37,16.89,16.89,0,0,0-3-.93,16.88,16.88,0,0,1-2.1-.65,6.86,6.86,0,0,1-1.88-1.09,5.41,5.41,0,0,1-1.36-1.7,5.25,5.25,0,0,1-.53-2.43,5.91,5.91,0,0,1,.77-3.1,6.74,6.74,0,0,1,2-2.09,9.08,9.08,0,0,1,2.69-1.19,11.39,11.39,0,0,1,2.93-.38,14.31,14.31,0,0,1,4.44.7,9.77,9.77,0,0,1,3.66,2.13Z"/><path class="cls-3" d="M58.56,49.19,30.56.68a1.37,1.37,0,0,0-2.37,0L12.4,28c5.33-1.36,11.37,3,11.37,3,5.38,3.8,11.18,2.4,15,.61a.64.64,0,0,1,.65,1.08C29.39,41,21.08,34.2,21.08,34.2,16.25,30.15,12,31.52,9.8,32.74a.44.44,0,0,1-.15,0L.18,49.19a1.37,1.37,0,0,0,1.19,2.05h56A1.36,1.36,0,0,0,58.56,49.19ZM10.61,47.56A2.6,2.6,0,1,1,13.22,45,2.61,2.61,0,0,1,10.61,47.56Zm4.48-6.81a2.6,2.6,0,1,1,2.6-2.6A2.59,2.59,0,0,1,15.09,40.75Zm4.47,6.81a2.6,2.6,0,1,1,2.6-2.6A2.61,2.61,0,0,1,19.56,47.56Z"/><path class="cls-2" d="M57.07,28.5a3.42,3.42,0,1,1-3.41-3.32A3.34,3.34,0,0,1,57.07,28.5Zm-6,0a2.57,2.57,0,0,0,2.59,2.65,2.54,2.54,0,0,0,2.53-2.63,2.56,2.56,0,1,0-5.12,0Zm2,1.74h-.77V26.92a6.76,6.76,0,0,1,1.27-.1,2.13,2.13,0,0,1,1.16.24.93.93,0,0,1,.32.73.84.84,0,0,1-.69.77v0a1,1,0,0,1,.61.81,2.51,2.51,0,0,0,.24.83h-.83a2.79,2.79,0,0,1-.26-.81c-.06-.36-.26-.52-.69-.52h-.36Zm0-1.88h.36c.43,0,.77-.14.77-.49s-.22-.5-.71-.5a1.82,1.82,0,0,0-.42,0Z"/></g></g></svg>