<svg xmlns="http://www.w3.org/2000/svg" viewBox="0 0 110 110"><defs><style>.cls-1{fill:#d9f1f6;}.cls-2{fill:#39b5d3;}</style></defs><title>Recurso 4</title><g id="Capa_2" data-name="Capa 2"><g id="Layer_1" data-name="Layer 1"><circle class="cls-1" cx="55" cy="55" r="55"/><path class="cls-2" d="M79.67,41.47,64.88,26a1.44,1.44,0,0,0-1-.47H40.43a7.92,7.92,0,0,0-7.88,7.87V77.63a7.92,7.92,0,0,0,7.88,7.87H72.2a7.92,7.92,0,0,0,7.89-7.87V42.49A1.61,1.61,0,0,0,79.67,41.47ZM65.3,30.62,75.2,41H68.77a3.46,3.46,0,0,1-3.47-3.45Zm11.89,47a5,5,0,0,1-5,5H40.43a5,5,0,0,1-5-5V33.37a5,5,0,0,1,5-5h22v9.16a6.34,6.34,0,0,0,6.36,6.35h8.42ZM55.26,67.4a1.46,1.46,0,0,0,1.06.46,1.48,1.48,0,0,0,1.06-.46l8.49-9.11a1.45,1.45,0,0,0-2.12-2l-6,6.42V46.91a1.45,1.45,0,0,0-2.9,0V62.73l-6-6.42a1.45,1.45,0,1,0-2.12,2ZM44.39,72.6a1.45,1.45,0,0,0,0,2.9H68.26a1.45,1.45,0,1,0,0-2.9Z"/></g></g></svg>