<svg xmlns="http://www.w3.org/2000/svg" viewBox="0 0 110 110"><defs><style>.cls-1{fill:#d9f1f6;}.cls-2{fill:#39b5d3;}</style></defs><title>Recurso 3</title><g id="Capa_2" data-name="Capa 2"><g id="Layer_1" data-name="Layer 1"><circle class="cls-1" cx="55" cy="55" r="55"/><path class="cls-2" d="M75.17,25H34.09a1.19,1.19,0,0,0-1.19,1.2V67.1l-6.13,6.13a3.88,3.88,0,1,0,5.49,5.49l.64-.64V83.8A1.19,1.19,0,0,0,34.09,85H65.33a1.23,1.23,0,0,0,.85-.35L76,74.81a1.23,1.23,0,0,0,.35-.85V26.2A1.2,1.2,0,0,0,75.17,25ZM30.57,77a1.49,1.49,0,0,1-2.11-2.11L39.91,63.47,42,65.58Zm34.75-4.27h0A1.2,1.2,0,0,0,64.13,74v8.66H35.29V75.69l9.27-9.26a1.21,1.21,0,0,0,0-1.69l-1.1-1.1,2.29-2.28a14.19,14.19,0,1,0-1.7-1.68L41.77,62l-1-1a1.19,1.19,0,0,0-.84-.35,1.23,1.23,0,0,0-.85.35l-3.77,3.78V27.39H74V72.77ZM43,50.48A11.78,11.78,0,1,1,54.81,62.26,11.78,11.78,0,0,1,43,50.48ZM66.52,80.92V75.15h5.77Z"/><path class="cls-2" d="M48.18,51.74H61.57a1.2,1.2,0,0,0,0-2.39H48.18a1.2,1.2,0,1,0,0,2.39Z"/><path class="cls-2" d="M62.76,55.2A1.19,1.19,0,0,0,61.57,54H48.18a1.2,1.2,0,1,0,0,2.39H61.57A1.19,1.19,0,0,0,62.76,55.2Z"/><path class="cls-2" d="M48.18,47h5.38a1.2,1.2,0,0,0,0-2.39H48.18a1.2,1.2,0,1,0,0,2.39Z"/><path class="cls-2" d="M57.14,47h.72a1.2,1.2,0,1,0,0-2.39h-.72a1.2,1.2,0,0,0,0,2.39Z"/></g></g></svg>